<svg width="1214" height="374" viewBox="0 0 1214 374" fill="none" xmlns="http://www.w3.org/2000/svg">
<path d="M39.4 2.10106C19 9.16772 5.26667 24.7677 1.4 45.0344C-0.466667 54.6344 -0.466667 316.768 1.4 326.368C5.66667 349.034 24.0667 367.434 46.6 371.701C56.3333 373.568 315.8 373.568 325.4 371.701C345.667 367.834 362.333 353.168 368.6 333.568C370.6 327.568 370.733 313.034 370.467 182.901L370.067 39.0344L365.8 30.2344C360.467 19.5677 349.8 9.03439 339.133 3.96772L331.4 0.367723L188.733 0.101057C55.9333 -0.16561 45.6667 -0.0322766 39.4 2.10106ZM230.867 33.9677C239.267 38.9011 244.333 42.7677 244.867 44.5011C245.267 46.2344 243.667 50.5011 240.2 56.5011C237.267 61.5677 235.267 66.1011 235.8 66.5011C236.333 66.9011 257.8 79.7011 283.4 95.0344C309.133 110.234 331.4 123.968 333.133 125.434C337.533 129.434 337.133 136.234 332.2 141.168C327 146.234 323.8 146.101 313.4 139.968C306.067 135.568 242.067 97.0344 228.6 88.9011L224.333 86.3677L219.267 95.0344C215.933 100.634 213 104.101 211.133 104.501C209 105.034 204.733 103.301 197.133 99.0344C184.467 91.8344 180.067 88.2344 180.067 85.0344C180.067 82.7677 208.067 33.0344 211.8 28.6344C212.867 27.4344 214.6 26.3677 215.667 26.3677C216.733 26.3677 223.533 29.8344 230.867 33.9677ZM224.067 126.768C229.4 129.434 229 134.234 222.733 141.834C213.4 153.168 213.667 156.501 226.067 171.301C239 186.634 242.067 193.701 242.067 207.701C242.067 218.501 241.8 219.701 235.8 231.968C227.4 249.434 220.867 259.168 215.8 262.368C211.8 264.768 209 265.034 186.333 265.034C166.6 265.034 160.467 264.634 157.4 263.034C151.8 260.101 145.267 250.901 137.133 234.634C130.2 220.634 130.067 220.234 130.067 208.368C130.067 193.301 133.133 186.368 146.6 170.634C158.467 156.768 159 153.168 150.733 142.234C144.6 133.968 144.2 129.434 149.4 126.768C151.8 125.568 162.067 125.034 186.733 125.034C211.4 125.034 221.667 125.568 224.067 126.768ZM276.2 259.568C283.933 267.301 283.533 267.701 245.933 299.168C218.333 322.234 207.933 329.434 189.8 337.968C172.333 346.234 168.2 346.234 138.067 337.034C119.667 331.301 113 329.968 102.733 329.434C90.3333 328.768 89.5333 328.901 78.2 333.568C71.6667 336.368 65.1333 338.368 63.6667 338.101C61.5333 337.834 58.8667 332.634 51 313.834C41.4 290.768 41.1333 289.968 43.5333 287.701C45 286.368 56.3333 280.101 68.7333 273.701C88.0667 263.834 93.1333 261.834 103.267 260.101C117.667 257.568 124.867 258.634 141.8 265.834C167.133 276.901 168.733 277.301 183.533 279.034C199.4 280.901 205.4 283.168 208.867 288.368C211.8 292.901 210.2 296.634 203.8 299.834C196.333 303.568 183.4 304.368 159.933 302.368C144.6 301.168 139.533 301.034 138.333 302.234C135.8 304.768 139 305.834 158.067 308.901C178.867 312.234 185.8 312.368 197.133 309.701C208.067 307.168 214.733 303.568 219.8 297.701C224.6 292.234 225.133 287.968 221.533 283.568L219 280.501L231.267 272.501C252.6 258.768 258.733 255.701 265.8 255.701C271.133 255.701 272.867 256.368 276.2 259.568Z" fill="#485665"/>
<path d="M1028.07 86.6345C1017 89.8345 1011.4 97.9678 1012.33 109.701C1013.4 121.968 1021.8 129.301 1034.73 129.301C1049.53 129.168 1059.53 117.168 1056.87 103.034C1054.6 91.3011 1040.33 83.0345 1028.07 86.6345Z" fill="#485665"/>
<path d="M442.733 288.368L491.667 287.701C538.067 287.034 541.133 286.768 548.467 284.101C575.267 274.101 589.667 252.768 587.8 226.101C586.467 208.368 577 195.034 560.733 188.368L553.533 185.568L562.467 179.568C570.067 174.634 572.067 172.368 575.8 165.034C589.4 137.968 576.333 107.568 546.6 97.0344C533.8 92.6344 523.267 91.7011 482.467 91.7011H442.733V288.368ZM524.467 127.834C541.133 132.368 547 153.568 534.867 165.034C527.933 171.701 522.067 173.034 500.867 173.034H482.733V126.368H501.133C511.133 126.368 521.667 127.034 524.467 127.834ZM533.667 208.768C552.867 218.234 549.8 247.568 528.867 252.901C525.533 253.701 513.8 254.368 502.867 254.368H482.733V204.768L505.133 205.301C525.133 205.701 528.067 205.968 533.667 208.768Z" fill="#485665"/>
<path d="M922.867 146.368H900.067V175.568L922.067 176.368L922.733 218.368C923.4 259.034 923.533 260.634 926.6 267.434C934.6 285.034 951.8 291.968 981.933 289.701L994.733 288.768V257.701H985C979.8 257.701 973.4 256.901 971 255.834C962.6 252.368 962.067 249.701 961.667 210.634L961.267 175.701H994.733V146.368H961.4V110.368H922.067L922.867 146.368Z" fill="#485665"/>
<path d="M812.067 143.568C782.867 147.834 764.467 163.034 761.8 184.901L761.133 191.034L780.467 190.634C799.133 190.234 799.8 190.101 801.133 187.168C801.933 185.434 804.733 182.234 807.533 180.234C811.933 176.901 813.933 176.368 823.267 175.968C832.867 175.568 834.6 175.834 838.733 178.634C844.867 182.634 848.067 189.434 848.067 197.701V204.368L823.667 204.501C789 204.768 776.867 207.968 766.333 219.568C757.133 229.834 754.6 251.968 761 266.501C768.867 284.101 791.267 294.101 815 290.501C827.133 288.634 840.067 282.501 845.4 275.968L849.4 271.034V287.568L886.867 288.368L886.467 237.034C886.067 192.901 885.667 184.768 883.667 178.768C878.467 163.434 866.067 151.034 850.867 146.368C841.133 143.301 823 141.968 812.067 143.568ZM848.067 233.168C848.067 251.168 834.867 263.701 816.067 263.701C799.933 263.701 790.867 246.234 800.867 234.368C805.267 229.301 811.133 227.968 831.133 227.834L848.067 227.701V233.168Z" fill="#485665"/>
<path d="M1143.93 145.701C1135.67 148.368 1125.53 155.301 1121.8 160.901L1118.73 165.434V160.901C1118.73 158.368 1118.33 154.101 1117.93 151.301L1117 146.368H1080.07V288.368L1119.4 287.834L1120.07 240.768C1120.73 196.634 1120.87 193.434 1123.4 189.168C1127.53 182.234 1135.93 178.368 1147 178.368C1161.53 178.368 1169 183.034 1171.93 193.701C1172.87 197.034 1173.4 215.568 1173.4 243.701V288.368L1213.53 287.568L1213.13 233.968C1212.73 181.568 1212.6 180.234 1209.67 172.634C1205.67 162.768 1195.8 152.634 1185.8 147.968C1179.27 145.034 1175.93 144.368 1164.07 144.101C1154.47 143.834 1148.07 144.368 1143.93 145.701Z" fill="#485665"/>
<path d="M605.667 197.301C606.067 246.368 606.2 248.768 609.133 256.768C613 267.434 617 273.968 623.533 279.568C642.6 296.368 680.867 294.368 696.467 275.701L700.067 271.434L700.2 276.634C700.467 287.301 699.933 287.034 719.8 287.034H737.4V146.368H698.733V188.368C698.733 213.568 698.2 232.901 697.267 237.034C694.6 249.568 686.467 255.701 672.6 255.701C657.8 255.701 649.8 250.901 646.733 239.968C645.933 237.034 645.4 217.034 645.4 190.634V146.368H605.267L605.667 197.301Z" fill="#485665"/>
<path d="M1015 217.168L1015.4 287.834H1055.4L1055.8 217.168L1056.07 146.368H1014.73L1015 217.168Z" fill="#485665"/>
</svg>
