<?xml version="1.0" encoding="UTF-8" standalone="no"?>
<!-- Created with Inkscape (http://www.inkscape.org/) -->

<svg
   width="25.734402mm"
   height="25.735348mm"
   viewBox="0 0 25.734402 25.735348"
   version="1.1"
   id="svg1"
   xml:space="preserve"
   inkscape:version="1.3.2 (091e20e, 2023-11-25, custom)"
   sodipodi:docname="holy tuff.svg"
   xmlns:inkscape="http://www.inkscape.org/namespaces/inkscape"
   xmlns:sodipodi="http://sodipodi.sourceforge.net/DTD/sodipodi-0.dtd"
   xmlns="http://www.w3.org/2000/svg"
   xmlns:svg="http://www.w3.org/2000/svg"><sodipodi:namedview
     id="namedview1"
     pagecolor="#ffffff"
     bordercolor="#000000"
     borderopacity="0.25"
     inkscape:showpageshadow="2"
     inkscape:pageopacity="0.0"
     inkscape:pagecheckerboard="0"
     inkscape:deskcolor="#d1d1d1"
     inkscape:document-units="mm"
     showguides="true"
     inkscape:zoom="3.1108586"
     inkscape:cx="-59.308385"
     inkscape:cy="619.28241"
     inkscape:window-width="1920"
     inkscape:window-height="1111"
     inkscape:window-x="-9"
     inkscape:window-y="-9"
     inkscape:window-maximized="1"
     inkscape:current-layer="g14"><sodipodi:guide
       position="-117.81347,343.00165"
       orientation="1,0"
       id="guide9"
       inkscape:locked="false" /></sodipodi:namedview><defs
     id="defs1" /><g
     inkscape:label="Layer 1"
     inkscape:groupmode="layer"
     id="layer1"
     transform="translate(47.993959,-173.86041)"><g
       id="g14"><rect
         style="fill:#333333;stroke:#ffffff;stroke-width:0.505;stroke-linecap:round"
         id="rect1"
         width="82.919022"
         height="96.224846"
         x="-115.63547"
         y="210.25128"
         ry="0.8326897" /><g
         id="g21"
         transform="matrix(0.40458512,0,0,0.36823069,-72.020831,75.623236)"><rect
           style="fill:#808080;stroke-width:0.149835;stroke-linecap:round"
           id="rect17"
           width="22.617846"
           height="22.069452"
           x="-141.65836"
           y="120.44572"
           ry="1.8839775" /><rect
           style="fill:#808080;stroke-width:0.0886583;stroke-linecap:round"
           id="rect18"
           width="25.583675"
           height="6.831183"
           x="-143.14127"
           y="120.44572"
           ry="0.58314973" /><g
           id="g20"
           transform="matrix(1.3553011,0,0,1.3553011,46.313293,-42.022833)"><g
             id="g19"
             transform="translate(9.0025921,11.065857)"><path
               style="fill:#808080;stroke-width:0.132292;stroke-linecap:round"
               d="m -144.95606,110.64282 c 0,0 -3.4841,-2.1568 -1.64943,-4.73346 3.19684,-4.48971 8.36851,4.73346 8.36851,4.73346 z"
               id="path18"
               sodipodi:nodetypes="cscc" /><path
               style="fill:#808080;stroke-width:0.132292;stroke-linecap:round"
               d="m -133.74799,110.64282 c 0,0 3.4841,-2.1568 1.64943,-4.73346 -3.19684,-4.48971 -8.36851,4.73346 -8.36851,4.73346 z"
               id="path19"
               sodipodi:nodetypes="cscc" /></g><ellipse
             style="fill:#808080;stroke-width:0.132292;stroke-linecap:round"
             id="path20"
             cx="-130.34944"
             cy="119.87635"
             rx="2.0893698"
             ry="1.8806459" /></g></g><circle
         style="fill:#999999;stroke-width:0.24671;stroke-linecap:round"
         id="path11"
         cx="-131.78215"
         cy="125.93867"
         r="3.0562379" /><circle
         style="fill:#999999;stroke-width:0.24671;stroke-linecap:round"
         id="circle11"
         cx="-117.94508"
         cy="125.93867"
         r="3.0562379" /><path
         id="path4"
         style="fill:#1a1a1a;stroke-width:0.132292;stroke-linecap:round"
         d="m -124.86385,124.39407 c 0,0 -9.22786,-0.0466 -9.22786,8.97309 0,4.25482 9.22786,4.16771 9.22786,4.16771 0,0 9.22838,0.0871 9.22838,-4.16771 0,-9.01965 -9.22838,-8.97309 -9.22838,-8.97309 z" /><circle
         style="fill:#f9f9f9;stroke-width:0.132292;stroke-linecap:round"
         id="path6"
         cx="-128.72591"
         cy="131.39085"
         r="0.75175661" /><circle
         style="fill:#f9f9f9;stroke-width:0.132292;stroke-linecap:round"
         id="circle6"
         cx="-121.00131"
         cy="131.39085"
         r="0.75175661" /><path
         id="path7"
         style="fill:#f9f9f9;stroke-width:0.060304;stroke-linecap:round"
         d="m -124.86385,132.04713 c 0,0 -2.50136,0.1371 -2.55126,1.85519 0,1.34313 2.55126,1.34358 2.55126,1.34358 0,0 2.55179,-4.5e-4 2.55179,-1.34358 -0.0498,-1.71809 -2.55179,-1.85519 -2.55179,-1.85519 z" /><path
         id="path9"
         style="fill:#999999;stroke-width:0.063078;stroke-linecap:round"
         d="m -124.86385,131.70917 c 0,0 -1.05713,0.0821 -1.05213,0.39636 0.006,0.31429 1.05213,0.73535 1.05213,0.73535 0,0 1.04658,-0.42106 1.05214,-0.73535 0.005,-0.31429 -1.05214,-0.39636 -1.05214,-0.39636 z" /><path
         id="path22"
         style="fill:none;fill-opacity:1;stroke:#5ccfa3;stroke-width:0.832;stroke-linecap:round;stroke-dasharray:none;stroke-opacity:1"
         d="m -107.19948,128.56654 a 3.0562379,3.0562379 0 0 0 -3.05667,3.05615 3.0562379,3.0562379 0 0 0 1.69138,2.72799 c -0.68597,1.19901 -1.12501,2.73408 -1.12501,4.70049 0,4.25482 9.22787,4.16771 9.22787,4.16771 0,0 9.228379,0.0871 9.228379,-4.16771 0,-1.89893 -0.409903,-3.39465 -1.05575,-4.57491 a 3.0562379,3.0562379 0 0 0 1.982825,-2.85357 3.0562379,3.0562379 0 0 0 -3.056144,-3.05615 3.0562379,3.0562379 0 0 0 -2.976046,2.39572 c -2.132216,-0.89289 -4.123264,-0.88418 -4.123264,-0.88418 0,0 -1.78657,-0.008 -3.78736,0.74982 a 3.0562379,3.0562379 0 0 0 -2.95021,-2.26136 z" /><path
         id="path23"
         style="fill:#5ccfa3;fill-opacity:1;stroke-width:0.063078;stroke-linecap:round"
         d="m -100.2813,137.39329 c 0,0 -1.05713,0.0821 -1.05213,0.39636 0.006,0.31429 1.05213,0.73535 1.05213,0.73535 0,0 1.046576,-0.42106 1.052136,-0.73535 0.005,-0.31429 -1.052136,-0.39636 -1.052136,-0.39636 z" /><g
         id="g24"
         transform="translate(-8.3145558,5.6841237)"
         style="fill:#5ccfa3;fill-opacity:1"><circle
           style="fill:#5ccfa3;fill-opacity:1;stroke-width:0.132292;stroke-linecap:round"
           id="circle23"
           cx="-95.829041"
           cy="131.39085"
           r="0.75175661" /><circle
           style="fill:#5ccfa3;fill-opacity:1;stroke-width:0.132292;stroke-linecap:round"
           id="circle24"
           cx="-88.104446"
           cy="131.39085"
           r="0.75175661" /></g><g
         id="g25"
         transform="translate(-7.9650702,-0.90020625)"><path
           style="fill:none;fill-opacity:1;stroke:#5ccfa3;stroke-width:0.559739;stroke-linecap:round;stroke-dasharray:none;stroke-opacity:1"
           d="m -94.204469,139.99741 c 1.258397,0.96456 1.88824,-0.5722 1.88824,-0.5722"
           id="path24"
           sodipodi:nodetypes="cc" /><path
           style="fill:none;fill-opacity:1;stroke:#5ccfa3;stroke-width:0.559739;stroke-linecap:round;stroke-dasharray:none;stroke-opacity:1"
           d="m -90.427989,139.99741 c -1.258397,0.96456 -1.88824,-0.5722 -1.88824,-0.5722"
           id="path25"
           sodipodi:nodetypes="cc" /></g><path
         id="rect29"
         style="fill:#5ccfa3;fill-opacity:1;stroke:none;stroke-width:0.832;stroke-linecap:round;stroke-dasharray:none;stroke-opacity:1"
         d="m -97.418427,125.18601 c -0.75086,-0.005 -1.54613,0.62388 -2.18591,1.30535 a 1.1456739,0.93856162 0 0 0 -0.676963,-0.18139 1.1456739,0.93856162 0 0 0 -0.6749,0.18346 c -0.62465,-0.66581 -1.3972,-1.28254 -2.13268,-1.3069 -0.41258,-0.0137 -0.81337,0.1593 -1.16944,0.61443 -0.42373,0.54162 -0.32945,1.04547 -0.0791,1.44798 h -0.90434 c -0.11896,0 -0.21498,0.0955 -0.21498,0.21445 v 1.65055 a 3.0562379,3.0562379 0 0 1 1.22474,1.76371 c 2.06564,-0.82144 3.95014,-0.81545 3.95014,-0.81545 0,0 1.889003,-0.007 3.957383,0.81804 a 3.0562379,3.0562379 0 0 1 1.21853,-1.76217 v -1.65468 c 0,-0.11896 -0.09549,-0.21445 -0.21445,-0.21445 h -0.90486 c 0.25039,-0.40251 0.34518,-0.90636 -0.07855,-1.44798 -0.34035,-0.43505 -0.72135,-0.61207 -1.11466,-0.61495 z" /><path
         id="rect37"
         style="fill:#5ccfa3;fill-opacity:1;stroke:none;stroke-width:0.788737;stroke-linecap:round;stroke-dasharray:none;stroke-opacity:1"
         d="m -152.93454,145.94964 c -0.88439,0 -1.59628,0.71245 -1.59628,1.5968 v 11.06031 c 0,0.88439 0.71189,1.59629 1.59628,1.59629 h 11.06031 c 0.88439,0 1.59628,-0.7119 1.59628,-1.59629 v -11.06031 c 0,-0.88435 -0.71189,-1.5968 -1.59628,-1.5968 z m 7.02179,2.39882 c 0.20501,0.002 0.40345,0.0937 0.58085,0.3204 0.22081,0.28231 0.17184,0.54519 0.0413,0.75499 h 0.47129 c 0.062,0 0.11214,0.0496 0.11214,0.11162 v 0.43615 c 0.26432,-0.16735 0.57131,-0.26578 0.90847,-0.26665 1.06295,3e-5 1.93163,0.86876 1.93166,1.93166 v 0.002 c -0.002,0.69436 -0.41992,1.27303 -1.00769,1.61334 0.29509,0.62726 0.52555,1.33699 0.52555,2.25774 0,0.67698 -0.39103,1.20727 -0.90072,1.55495 -0.50969,0.34768 -1.14596,0.55469 -1.77147,0.69298 -1.24809,0.27597 -2.46826,0.26362 -2.47426,0.26355 0,0 -1.22951,0.013 -2.48047,-0.26355 -0.62547,-0.13829 -1.26181,-0.34529 -1.77147,-0.69298 -0.50967,-0.34768 -0.90072,-0.87797 -0.90072,-1.55495 0,-0.95988 0.24702,-1.69598 0.56482,-2.33784 -0.50651,-0.35755 -0.85838,-0.90174 -0.85938,-1.53324 v -0.002 c 3e-5,-1.06303 0.87014,-1.93181 1.93322,-1.93166 0.33583,9e-5 0.64214,0.0979 0.90692,0.26407 v -0.43357 c 0,-0.062 0.0501,-0.11162 0.11214,-0.11162 h 0.47129 c -0.13052,-0.2098 -0.17952,-0.47268 0.0413,-0.75499 0.18559,-0.23725 0.39473,-0.32688 0.60978,-0.31988 0.38335,0.0127 0.78598,0.33406 1.11156,0.6811 a 0.59715334,0.48920134 0 0 1 0.3514,-0.0956 0.59715334,0.48920134 0 0 1 0.35295,0.0946 c 0.33347,-0.35519 0.74808,-0.68258 1.13946,-0.68058 z m -5.09891,2.0345 c -0.6957,9.5e-4 -1.25365,0.55776 -1.25367,1.25367 0.001,0.47502 0.27003,0.90718 0.69505,1.11932 l 0.32039,0.16019 -0.17776,0.31213 c -0.32657,0.57083 -0.54106,1.30704 -0.54106,2.28151 0,0.43189 0.21141,0.72673 0.60358,0.99426 0.39217,0.26754 0.95834,0.46412 1.53531,0.59169 1.15394,0.2551 2.32802,0.24598 2.32802,0.24598 h 0.004 0.002 c 0,0 1.17401,0.009 2.32802,-0.24598 0.577,-0.12757 1.14466,-0.32415 1.53686,-0.59169 0.39219,-0.26753 0.60358,-0.56238 0.60358,-0.99426 0,-0.94098 -0.2018,-1.66024 -0.50953,-2.2226 l -0.18759,-0.3421 0.36742,-0.13849 c 0.48929,-0.18354 0.81135,-0.64739 0.81235,-1.16996 -2e-5,-0.69648 -0.55765,-1.25364 -1.25418,-1.25367 -0.58797,0.002 -1.09349,0.41018 -1.2206,0.98444 l -0.0858,0.39429 -0.37517,-0.15606 c -1.04129,-0.4356 -2.01745,-0.43357 -2.01745,-0.43357 h -0.002 c 0,0 -0.87397,-0.002 -1.85363,0.36897 l -0.34934,0.13074 -0.0977,-0.36121 c -0.14768,-0.54825 -0.64161,-0.9266 -1.20923,-0.9276 z m 1.31103,3.49075 a 0.56289554,0.56289554 0 0 1 0.56276,0.56275 0.56289554,0.56289554 0 0 1 -0.56276,0.56328 0.56289554,0.56289554 0 0 1 -0.56275,-0.56328 0.56289554,0.56289554 0 0 1 0.56275,-0.56275 z m 4.59249,0 a 0.56289518,0.56289518 0 0 1 0.56275,0.56275 0.56289518,0.56289518 0 0 1 -0.56275,0.56328 0.56289518,0.56289518 0 0 1 -0.56328,-0.56328 0.56289518,0.56289518 0 0 1 0.56328,-0.56275 z m -2.2965,0.7829 c 0.33941,-1e-5 0.67894,0.0782 0.67644,0.23461 -0.002,0.11493 -0.22254,0.25186 -0.41134,0.3483 0.0381,0.0685 0.10832,0.17911 0.2005,0.25631 0.0708,0.0593 0.14204,0.0931 0.22634,0.0961 0.0843,0.003 0.20103,-0.0233 0.36949,-0.15245 a 0.2525,0.2525 0 0 1 0.35347,0.047 0.2525,0.2525 0 0 1 -0.047,0.35502 c -0.23599,0.18085 -0.47443,0.26431 -0.6935,0.25631 -0.21908,-0.008 -0.40174,-0.10479 -0.5333,-0.21497 -0.0533,-0.0447 -0.0999,-0.0924 -0.14107,-0.14005 -0.0413,0.0477 -0.0887,0.0953 -0.14211,0.14005 -0.13156,0.11018 -0.31216,0.20697 -0.53124,0.21497 -0.21907,0.008 -0.457,-0.0754 -0.69298,-0.25631 a 0.2525,0.2525 0 0 1 -0.047,-0.35502 0.2525,0.2525 0 0 1 0.35346,-0.047 c 0.16845,0.12915 0.28467,0.15545 0.36897,0.15245 0.0843,-0.003 0.15399,-0.0368 0.22479,-0.0961 0.0925,-0.0774 0.16302,-0.18839 0.20103,-0.25683 -0.18851,-0.0964 -0.40855,-0.23305 -0.41083,-0.34778 -0.003,-0.15637 0.33651,-0.23461 0.67593,-0.23461 z" /><path
         id="rect62"
         style="fill:#5ccfa3;fill-opacity:1;stroke:none;stroke-width:0.788737;stroke-linecap:round;stroke-dasharray:none;stroke-opacity:1"
         d="m -136.46953,148.83654 c -0.88439,0 -1.59628,0.7119 -1.59628,1.59629 v 11.06082 c 0,0.88439 0.71189,1.59629 1.59628,1.59629 h 11.06083 c 0.88438,0 1.59628,-0.7119 1.59628,-1.59629 v -11.06082 c 0,-0.88439 -0.7119,-1.59629 -1.59628,-1.59629 z m 7.02231,2.39831 h 5.2e-4 c 0.205,0.002 0.40344,0.0942 0.58084,0.32091 0.22081,0.28231 0.17133,0.54467 0.0408,0.75447 h 0.4718 c 0.062,0 0.11162,0.0496 0.11162,0.11162 v 0.80667 a 1.5929861,1.5929861 0 0 1 0.90848,-0.29765 1.5929861,1.5929861 0 0 1 1.59318,1.59318 1.5929861,1.5929861 0 0 1 -1.03353,1.48725 c 0.33664,0.61518 0.55036,1.39458 0.55036,2.38435 0,2.21771 -4.81005,2.17248 -4.81005,2.17248 0,0 -4.81004,0.0452 -4.81004,-2.17248 0,-1.02494 0.22899,-1.82502 0.58653,-2.44998 a 1.5929861,1.5929861 0 0 1 -0.8816,-1.42162 1.5929861,1.5929861 0 0 1 1.59318,-1.59318 1.5929861,1.5929861 0 0 1 0.90847,0.29248 v -0.8015 c 0,-0.062 0.0501,-0.11162 0.11214,-0.11162 h 0.47129 c -0.13052,-0.2098 -0.17952,-0.47216 0.0413,-0.75447 0.18559,-0.23725 0.39422,-0.3274 0.60927,-0.3204 0.38335,0.0127 0.78598,0.33406 1.11156,0.6811 a 0.59715334,0.48920134 0 0 1 0.35191,-0.0956 0.59715334,0.48920134 0 0 1 0.35295,0.0946 c 0.33347,-0.35519 0.74757,-0.68257 1.13895,-0.68057 z" /><rect
         style="fill:#fcfefe;fill-opacity:1;stroke:none;stroke-width:0.788737;stroke-linecap:round;stroke-dasharray:none;stroke-opacity:1"
         id="rect68"
         width="14.253304"
         height="14.253304"
         x="-109.57606"
         y="150.7597"
         ry="1.5963701" /><path
         id="path69"
         style="fill:#5ccfa3;fill-opacity:1;stroke:#ffffff;stroke-width:0.678036;stroke-linecap:round;stroke-dasharray:none;stroke-opacity:1"
         d="m -152.69429,152.93119 a 1.5929861,1.5929861 0 0 0 -1.5932,1.59294 1.5929861,1.5929861 0 0 0 0.88158,1.42189 c -0.35754,0.62496 -0.58638,1.42508 -0.58638,2.45002 0,2.21771 4.80979,2.17231 4.80979,2.17231 0,0 4.81006,0.0454 4.81006,-2.17231 0,-0.98977 -0.21365,-1.76938 -0.55029,-2.38456 a 1.5929861,1.5929861 0 0 0 1.0335,-1.48735 1.5929861,1.5929861 0 0 0 -1.59293,-1.59294 1.5929861,1.5929861 0 0 0 -1.55119,1.2487 c -1.11137,-0.46539 -2.14915,-0.46085 -2.14915,-0.46085 0,0 -0.9312,-0.004 -1.97407,0.39083 a 1.5929861,1.5929861 0 0 0 -1.53772,-1.17868 z" /><path
         id="path72"
         style="fill:#5ccfa3;fill-opacity:1;stroke:none;stroke-width:1.42411;stroke-linecap:round;stroke-dasharray:none;stroke-opacity:1"
         d="m -45.111778,173.86041 c -1.596818,0 -2.882178,1.28637 -2.882178,2.88312 v 19.97004 c 0,1.59682 1.28536,2.8822 2.882178,2.8822 h 19.970046 c 1.596818,0 2.882178,-1.28538 2.882178,-2.8822 v -19.97004 c 0,-1.59675 -1.28536,-2.88312 -2.882178,-2.88312 z m 12.678258,4.33121 c 0.370158,0.004 0.728453,0.16918 1.048759,0.5785 0.398686,0.50973 0.310268,0.98438 0.07457,1.36318 h 0.850942 c 0.111945,0 0.202475,0.0896 0.202475,0.20154 v 0.78749 c 0.477246,-0.30216 1.031535,-0.47988 1.640297,-0.48145 1.919219,6e-5 3.487672,1.5686 3.487727,3.48773 v 0.004 c -0.0036,1.25371 -0.758191,2.29853 -1.819444,2.91298 0.532802,1.13255 0.948911,2.41401 0.948911,4.07648 0,1.22233 -0.706028,2.1798 -1.626303,2.80756 -0.920276,0.62775 -2.069099,1.00152 -3.198494,1.25121 -2.253501,0.49828 -4.45659,0.47599 -4.467423,0.47586 0,0 -2.219954,0.0235 -4.478636,-0.47586 -1.129323,-0.24969 -2.278273,-0.62344 -3.198494,-1.25121 -0.92024,-0.62776 -1.626303,-1.58523 -1.626303,-2.80756 0,-1.73312 0.446009,-3.06219 1.019816,-4.22111 -0.914534,-0.64557 -1.549856,-1.62814 -1.551662,-2.76835 v -0.004 c 5.4e-5,-1.91937 1.571089,-3.488 3.490543,-3.48773 0.606361,1.6e-4 1.159422,0.17677 1.637498,0.47679 v -0.78283 c 0,-0.11195 0.09046,-0.20154 0.202476,-0.20154 h 0.850942 c -0.235662,-0.3788 -0.324134,-0.85345 0.07457,-1.36318 0.335094,-0.42837 0.712709,-0.5902 1.100994,-0.57756 0.692161,0.0229 1.419134,0.60317 2.006988,1.22977 a 1.0781958,0.88328202 0 0 1 0.634473,-0.17261 1.0781958,0.88328202 0 0 1 0.637272,0.1708 c 0.6021,-0.64132 1.350703,-1.23244 2.057363,-1.22883 z m -9.206384,3.67341 c -1.256128,0.002 -2.263539,1.00707 -2.263575,2.26358 0.0018,0.85767 0.487555,1.63796 1.254953,2.021 l 0.578484,0.28923 -0.320957,0.56357 c -0.589641,1.03067 -0.976916,2.35994 -0.976916,4.1194 0,0.7798 0.381714,1.31215 1.0898,1.79519 0.708086,0.48306 1.73034,0.838 2.772093,1.06834 2.083507,0.46059 4.203378,0.44413 4.203378,0.44413 h 0.0072 0.0036 c 0,0 2.119744,0.0163 4.203378,-0.44413 1.041808,-0.23034 2.066751,-0.58528 2.774892,-1.06834 0.708122,-0.48304 1.089799,-1.01541 1.089799,-1.79519 0,-1.699 -0.364362,-2.99766 -0.919987,-4.01304 l -0.338704,-0.61768 0.663398,-0.25005 c 0.883442,-0.33139 1.464941,-1.1689 1.466746,-2.11243 -3.6e-5,-1.25754 -1.00687,-2.26352 -2.264496,-2.26358 -1.061615,0.004 -1.974361,0.74061 -2.203866,1.77747 l -0.154917,0.71191 -0.677391,-0.28177 c -1.880111,-0.78651 -3.642626,-0.78284 -3.642626,-0.78284 h -0.0036 c 0,0 -1.578005,-0.004 -3.346839,0.6662 l -0.630754,0.23605 -0.176403,-0.65218 c -0.266645,-0.9899 -1.158465,-1.67303 -2.183337,-1.67484 z m 2.367142,6.30276 a 1.0163413,1.0163413 0 0 1 1.016097,1.01608 1.0163413,1.0163413 0 0 1 -1.016097,1.01703 1.0163413,1.0163413 0 0 1 -1.016078,-1.01703 1.0163413,1.0163413 0 0 1 1.016078,-1.01608 z m 8.292013,0 a 1.0163406,1.0163406 0 0 1 1.016079,1.01608 1.0163406,1.0163406 0 0 1 -1.016079,1.01703 1.0163406,1.0163406 0 0 1 -1.017035,-1.01703 1.0163406,1.0163406 0 0 1 1.017035,-1.01608 z m -4.146467,1.41357 c 0.612825,-2e-5 1.225867,0.1412 1.221353,0.4236 -0.0036,0.20752 -0.401809,0.45475 -0.742699,0.62888 0.06879,0.12368 0.195578,0.32339 0.362015,0.46278 0.127833,0.10707 0.256462,0.1681 0.40867,0.17352 0.152209,0.005 0.362972,-0.0421 0.667136,-0.27526 a 0.45590372,0.45590372 0 0 1 0.638211,0.0849 0.45590372,0.45590372 0 0 1 -0.08486,0.64101 c -0.426094,0.32654 -0.856611,0.47723 -1.252155,0.46278 -0.395562,-0.0144 -0.725366,-0.1892 -0.962905,-0.38814 -0.09624,-0.0807 -0.180375,-0.16683 -0.25471,-0.25287 -0.07457,0.0861 -0.160153,0.17207 -0.256588,0.25287 -0.23754,0.19894 -0.563624,0.3737 -0.959186,0.38814 -0.395544,0.0144 -0.82514,-0.13614 -1.251216,-0.46278 a 0.45590372,0.45590372 0 0 1 -0.08486,-0.64101 0.45590372,0.45590372 0 0 1 0.638193,-0.0849 c 0.304146,0.23319 0.513988,0.28067 0.666197,0.27526 0.152208,-0.005 0.278038,-0.0664 0.405871,-0.17352 0.167015,-0.13975 0.294343,-0.34015 0.362972,-0.46372 -0.340366,-0.17406 -0.737661,-0.42079 -0.741778,-0.62794 -0.0054,-0.28233 0.607589,-0.4236 1.220432,-0.4236 z"
         inkscape:export-filename="Desktop\icon.svg"
         inkscape:export-xdpi="98.700562"
         inkscape:export-ydpi="98.700562" /></g></g></svg>
