<svg width="371" height="374" viewBox="0 0 371 374" fill="none" xmlns="http://www.w3.org/2000/svg">
<path d="M39.4 2.10106C19 9.16772 5.26667 24.7677 1.4 45.0344C-0.466667 54.6344 -0.466667 316.768 1.4 326.368C5.66667 349.034 24.0667 367.434 46.6 371.701C56.3333 373.568 315.8 373.568 325.4 371.701C345.667 367.834 362.333 353.168 368.6 333.568C370.6 327.568 370.733 313.034 370.467 182.901L370.067 39.0344L365.8 30.2344C360.467 19.5677 349.8 9.03439 339.133 3.96772L331.4 0.367723L188.733 0.101057C55.9333 -0.16561 45.6667 -0.0322766 39.4 2.10106ZM230.867 33.9677C239.267 38.9011 244.333 42.7677 244.867 44.5011C245.267 46.2344 243.667 50.5011 240.2 56.5011C237.267 61.5677 235.267 66.1011 235.8 66.5011C236.333 66.9011 257.8 79.7011 283.4 95.0344C309.133 110.234 331.4 123.968 333.133 125.434C337.533 129.434 337.133 136.234 332.2 141.168C327 146.234 323.8 146.101 313.4 139.968C306.067 135.568 242.067 97.0344 228.6 88.9011L224.333 86.3677L219.267 95.0344C215.933 100.634 213 104.101 211.133 104.501C209 105.034 204.733 103.301 197.133 99.0344C184.467 91.8344 180.067 88.2344 180.067 85.0344C180.067 82.7677 208.067 33.0344 211.8 28.6344C212.867 27.4344 214.6 26.3677 215.667 26.3677C216.733 26.3677 223.533 29.8344 230.867 33.9677ZM224.067 126.768C229.4 129.434 229 134.234 222.733 141.834C213.4 153.168 213.667 156.501 226.067 171.301C239 186.634 242.067 193.701 242.067 207.701C242.067 218.501 241.8 219.701 235.8 231.968C227.4 249.434 220.867 259.168 215.8 262.368C211.8 264.768 209 265.034 186.333 265.034C166.6 265.034 160.467 264.634 157.4 263.034C151.8 260.101 145.267 250.901 137.133 234.634C130.2 220.634 130.067 220.234 130.067 208.368C130.067 193.301 133.133 186.368 146.6 170.634C158.467 156.768 159 153.168 150.733 142.234C144.6 133.968 144.2 129.434 149.4 126.768C151.8 125.568 162.067 125.034 186.733 125.034C211.4 125.034 221.667 125.568 224.067 126.768ZM276.2 259.568C283.933 267.301 283.533 267.701 245.933 299.168C218.333 322.234 207.933 329.434 189.8 337.968C172.333 346.234 168.2 346.234 138.067 337.034C119.667 331.301 113 329.968 102.733 329.434C90.3333 328.768 89.5333 328.901 78.2 333.568C71.6667 336.368 65.1333 338.368 63.6667 338.101C61.5333 337.834 58.8667 332.634 51 313.834C41.4 290.768 41.1333 289.968 43.5333 287.701C45 286.368 56.3333 280.101 68.7333 273.701C88.0667 263.834 93.1333 261.834 103.267 260.101C117.667 257.568 124.867 258.634 141.8 265.834C167.133 276.901 168.733 277.301 183.533 279.034C199.4 280.901 205.4 283.168 208.867 288.368C211.8 292.901 210.2 296.634 203.8 299.834C196.333 303.568 183.4 304.368 159.933 302.368C144.6 301.168 139.533 301.034 138.333 302.234C135.8 304.768 139 305.834 158.067 308.901C178.867 312.234 185.8 312.368 197.133 309.701C208.067 307.168 214.733 303.568 219.8 297.701C224.6 292.234 225.133 287.968 221.533 283.568L219 280.501L231.267 272.501C252.6 258.768 258.733 255.701 265.8 255.701C271.133 255.701 272.867 256.368 276.2 259.568Z" fill="#50C878"/>
</svg>
